<svg xmlns="http://www.w3.org/2000/svg" viewBox="0 -0.5 16 16" shape-rendering="crispEdges">
<metadata>Made with Pixels to Svg https://codepen.io/shshaw/pen/XbxvNj</metadata>
<path stroke="#14182e" d="M6 0h4M4 1h2M10 1h2M3 2h1M12 2h1M2 3h1M13 3h1M2 4h1M5 4h6M13 4h1M1 5h1M5 5h6M14 5h1M1 6h1M6 6h4M14 6h1M1 7h1M6 7h4M14 7h1M1 8h1M7 8h2M14 8h1M1 9h1M7 9h2M14 9h1M1 10h1M14 10h1M2 11h1M13 11h1M2 12h1M13 12h1M3 13h1M12 13h1M4 14h2M10 14h2M6 15h4" />
<path stroke="#686f99" d="M6 1h4M4 2h8M3 3h10M3 4h2M11 4h2M2 5h3M11 5h3M2 6h4M10 6h4M2 7h4M10 7h4M2 8h5M9 8h5M3 9h4M9 9h4M3 10h10M4 11h8M6 12h4" />
<path stroke="#404973" d="M2 9h1M13 9h1M2 10h1M13 10h1M3 11h1M12 11h1M3 12h3M10 12h3M4 13h8M6 14h4" />
</svg>