<svg xmlns="http://www.w3.org/2000/svg" viewBox="0 -0.5 16 16" shape-rendering="crispEdges">
<metadata>Made with Pixels to Svg https://codepen.io/shshaw/pen/XbxvNj</metadata>
<path stroke="#14182e" d="M6 2h4M4 3h2M10 3h2M3 4h1M12 4h1M2 5h1M13 5h1M2 6h1M5 6h6M13 6h1M1 7h1M5 7h6M14 7h1M1 8h1M6 8h4M14 8h1M1 9h1M6 9h4M14 9h1M1 10h1M7 10h2M14 10h1M2 11h1M7 11h2M13 11h1M2 12h1M13 12h1M3 13h1M12 13h1M4 14h2M10 14h2M6 15h4" />
<path stroke="#404973" d="M6 3h4M4 4h8M3 5h10M3 6h2M11 6h2M2 7h3M11 7h3M2 8h4M10 8h4M2 9h4M10 9h4M2 10h5M9 10h5M3 11h4M9 11h4M3 12h10M4 13h8M6 14h4" />
</svg>