<svg xmlns="http://www.w3.org/2000/svg" viewBox="0 -0.5 16 16" shape-rendering="crispEdges">
<metadata>Made with Pixels to Svg https://codepen.io/shshaw/pen/XbxvNj</metadata>
<path stroke="#14182e" d="M6 1h4M4 2h2M10 2h2M3 3h1M12 3h1M2 4h1M13 4h1M2 5h1M7 5h2M13 5h1M1 6h1M7 6h2M14 6h1M1 7h1M6 7h4M14 7h1M1 8h1M6 8h4M14 8h1M1 9h1M5 9h6M14 9h1M1 10h1M5 10h6M14 10h1M2 11h1M13 11h1M2 12h1M13 12h1M3 13h1M12 13h1M4 14h2M10 14h2M6 15h4" />
<path stroke="#686f99" d="M6 2h4M4 3h8M3 4h10M3 5h4M9 5h4M2 6h5M9 6h5M2 7h4M10 7h4M2 8h4M10 8h4M2 9h3M11 9h3M3 10h2M11 10h2M3 11h10M4 12h8M6 13h4" />
<path stroke="#404973" d="M2 10h1M13 10h1M3 12h1M12 12h1M4 13h2M10 13h2M6 14h4" />
</svg>