<svg xmlns="http://www.w3.org/2000/svg" viewBox="0 -0.5 16 16" shape-rendering="crispEdges">
<metadata>Made with Pixels to Svg https://codepen.io/shshaw/pen/XbxvNj</metadata>
<path stroke="#14182e" d="M6 0h4M4 1h2M10 1h2M3 2h1M12 2h1M2 3h1M13 3h1M2 4h1M9 4h2M13 4h1M1 5h1M7 5h4M14 5h1M1 6h1M5 6h6M14 6h1M1 7h1M5 7h6M14 7h1M1 8h1M7 8h4M14 8h1M1 9h1M9 9h2M14 9h1M1 10h1M14 10h1M2 11h1M13 11h1M2 12h1M13 12h1M3 13h1M12 13h1M4 14h2M10 14h2M6 15h4" />
<path stroke="#686f99" d="M6 1h4M4 2h8M3 3h10M3 4h6M11 4h2M2 5h5M11 5h3M2 6h3M11 6h3M2 7h3M11 7h3M2 8h5M11 8h3M3 9h6M11 9h2M3 10h10M4 11h8M6 12h4" />
<path stroke="#404973" d="M2 9h1M13 9h1M2 10h1M13 10h1M3 11h1M12 11h1M3 12h3M10 12h3M4 13h8M6 14h4" />
</svg>