<svg xmlns="http://www.w3.org/2000/svg" viewBox="0 -0.5 16 16" shape-rendering="crispEdges">
<metadata>Made with Pixels to Svg https://codepen.io/shshaw/pen/XbxvNj</metadata>
<path stroke="#14182e" d="M6 1h4M4 2h2M10 2h2M3 3h1M12 3h1M2 4h1M13 4h1M2 5h1M9 5h2M13 5h1M1 6h1M7 6h4M14 6h1M1 7h1M5 7h6M14 7h1M1 8h1M5 8h6M14 8h1M1 9h1M7 9h4M14 9h1M1 10h1M9 10h2M14 10h1M2 11h1M13 11h1M2 12h1M13 12h1M3 13h1M12 13h1M4 14h2M10 14h2M6 15h4" />
<path stroke="#404973" d="M6 2h4M4 3h8M3 4h10M3 5h6M11 5h2M2 6h5M11 6h3M2 7h3M11 7h3M2 8h3M11 8h3M2 9h5M11 9h3M3 10h6M11 10h2M3 11h10M4 12h8M6 13h4" />
<path stroke="#2c354d" d="M2 10h1M13 10h1M3 12h1M12 12h1M4 13h2M10 13h2M6 14h4" />
</svg>