<svg xmlns="http://www.w3.org/2000/svg" viewBox="0 -0.5 16 16" shape-rendering="crispEdges">
<metadata>Made with Pixels to Svg https://codepen.io/shshaw/pen/XbxvNj</metadata>
<path stroke="#14182e" d="M6 1h4M4 2h2M10 2h2M3 3h1M12 3h1M2 4h1M13 4h1M2 5h1M13 5h1M1 6h1M14 6h1M1 7h1M14 7h1M1 8h1M14 8h1M1 9h1M14 9h1M1 10h2M13 10h2M2 11h1M13 11h1M2 12h2M12 12h2M3 13h3M10 13h3M4 14h8M6 15h4" />
<path stroke="#686f99" d="M6 2h4M4 3h1M11 3h1M3 4h1M12 4h1M2 6h1M13 6h1" />
<path stroke="#404973" d="M5 3h6M4 4h8M3 5h10M3 6h10M2 7h12M2 8h12M3 9h10M3 10h10M4 11h8M6 12h4" />
<path stroke="#2c354d" d="M2 9h1M13 9h1M3 11h1M12 11h1M4 12h2M10 12h2M6 13h4" />
</svg>